<?xml version="1.0" encoding="UTF-8" standalone="no"?>
<svg width="426px" height="378px" viewBox="0 0 426 378" version="1.1" xmlns="http://www.w3.org/2000/svg" xmlns:xlink="http://www.w3.org/1999/xlink" xmlns:sketch="http://www.bohemiancoding.com/sketch/ns">
    <title>Slice 1</title>
    <description>Created with Sketch (http://www.bohemiancoding.com/sketch)</description>
    <defs></defs>
    <g id="Page-1" stroke="none" stroke-width="1" fill="none" fill-rule="evenodd" sketch:type="MSPage">
        <g id="Artboard-1" sketch:type="MSArtboardGroup" transform="translate(2.000000, -14.000000)">
            <g id="Imported-Layers" sketch:type="MSLayerGroup" transform="translate(0.000000, 23.000000)">
                <path d="M165.924883,24.3192488 C184.741784,-8.10328638 215.258216,-8.10328638 234.075117,24.3192488 L391.906103,296.225352 C410.723005,328.647887 395.624413,354.929577 358.178404,354.929577 L41.8122066,354.929577 C4.37558685,354.929577 -10.7230047,328.647887 8.09389671,296.225352 L165.924883,24.3192488" id="Fill-1" fill="#000000" sketch:type="MSShapeGroup"></path>
                <path d="M187.624413,31.1079812 C194.460094,19.2300469 205.539906,19.2300469 212.375587,31.1079812 L373.333333,310.798122 C380.169014,322.666667 374.619718,332.29108 360.948357,332.29108 L39.0516432,332.29108 C25.3802817,332.29108 19.8309859,322.666667 26.6666667,310.798122 L187.624413,31.1079812" id="Fill-2" fill="#DD2E44" sketch:type="MSShapeGroup"></path>
                <path d="M205.971831,243.352113 C207.276995,231.248826 208.58216,220.929577 209.887324,212.441315 C211.192488,203.953052 212.431925,196.629108 213.558685,190.441315 C214.685446,184.253521 215.746479,178.910798 216.732394,174.450704 C217.690141,170 218.535211,165.784038 219.239437,161.793427 C219.953052,157.830986 220.478873,153.765258 220.86385,149.661972 C221.258216,145.558685 221.464789,140.779343 221.464789,135.408451 C221.464789,130.460094 220.798122,126.037559 219.492958,122.075117 C218.150235,118.150235 216.450704,114.826291 214.366197,112.140845 C212.253521,109.446009 209.849765,107.361502 207.13615,105.877934 C204.413146,104.422535 201.661972,103.680751 198.873239,103.680751 C196.046948,103.680751 193.295775,104.422535 190.57277,105.877934 C187.849765,107.361502 185.455399,109.446009 183.370892,112.140845 C181.248826,114.826291 179.558685,118.150235 178.253521,122.075117 C176.910798,126.037559 176.2723,130.460094 176.2723,135.408451 C176.2723,140.779343 176.450704,145.558685 176.835681,149.661972 C177.230047,153.765258 177.793427,157.830986 178.497653,161.793427 C179.201878,165.784038 180.046948,170 181.070423,174.450704 C182.065728,178.910798 183.15493,184.253521 184.29108,190.441315 C185.41784,196.629108 186.619718,203.981221 187.962441,212.507042 C189.267606,221.070423 190.57277,231.323944 191.915493,243.352113 L205.971831,243.352113" id="Fill-3" fill="#000000" sketch:type="MSShapeGroup"></path>
                <path d="M177.399061,279.098592 C177.399061,267.230047 187.014085,257.596244 198.873239,257.596244 C210.723005,257.596244 220.338028,267.230047 220.338028,279.098592 C220.338028,290.976526 210.723005,300.610329 198.873239,300.610329 C187.014085,300.610329 177.399061,290.976526 177.399061,279.098592" id="Fill-4" fill="#000000" sketch:type="MSShapeGroup"></path>
            </g>
        </g>
    </g>
</svg>