<?xml version="1.0" standalone="no"?>
<!DOCTYPE svg PUBLIC "-//W3C//DTD SVG 1.1//EN" "http://www.w3.org/Graphics/SVG/1.1/DTD/svg11.dtd" >
<svg xmlns="http://www.w3.org/2000/svg">
<metadata></metadata>
<defs>
<font id="tweetdeckregular" horiz-adv-x="1920" >
<font-face units-per-em="1920" ascent="1536" descent="-384" />
<missing-glyph horiz-adv-x="500" />
<glyph />
<glyph />
<glyph unicode="&#xd;" />
<glyph unicode="&#xe000;" horiz-adv-x="500" d="M0 0z" />
<glyph unicode="&#xf000;" d="M160 440h80q95 0 204.5 31t195.5 89q-113 0 -200.5 71t-119.5 169h80h80q-119 30 -199.5 134.5t-80.5 225.5q40 -40 160 -40q-63 31 -111.5 112t-48.5 168q0 30 25 80t55 80q129 -161 305 -260.5t375 -99.5q-40 40 -40 80q0 150 105 255t255 105q120 0 240 -120 q28 0 55 7.5t44 16.5t48.5 27t52.5 29q-20 -40 -31.5 -61t-32 -52t-44 -52t-52.5 -35q33 17 105.5 37.5t94.5 42.5q-20 -40 -80 -100t-80 -100v-40q0 -111 -27 -224t-78 -220.5t-130.5 -200.5t-179 -163.5t-229.5 -111t-276 -40.5q-156 0 -280 36.5t-240 123.5z" />
<glyph unicode="&#xf001;" d="M240 960q0 -114 20.5 -213.5t72 -194.5t131.5 -162.5t207 -108.5t289 -41q158 0 276 37t204 123l-80 80q-58 -58 -166.5 -89t-233.5 -31q-128 0 -231 32t-171 87t-113 132t-65 163.5t-20 185.5q0 118 49 228.5t130.5 192t192 130.5t228.5 49q120 0 229 -37t191 -102.5 t131 -164.5t49 -216q0 -158 -37 -239t-123 -81q-54 0 -87 41t-33 79v40l40 400l-120 40l-80 -80q-6 6 -20 23t-22.5 23.5t-28.5 16t-51.5 13.5t-77.5 4q-158 0 -259 -93.5t-101 -266.5q0 -147 98.5 -253.5t221.5 -106.5q56 0 97.5 13.5t58.5 26.5t44 40q80 -80 320 -80 q123 0 201.5 117.5t78.5 322.5q0 298 -194 469t-526 171q-215 0 -380.5 -97t-252.5 -260t-87 -363zM720 920q0 113 71 176.5t169 63.5q60 0 110 -50t50 -110q0 -144 -53 -212t-147 -68q-84 0 -142 66.5t-58 133.5z" />
<glyph unicode="&#xf003;" d="M240 480v880l400 -400zM320 400l400 480l240 -240l240 240l400 -480h-1280zM320 1440h1280l-640 -640zM1280 960l400 400v-880z" />
<glyph unicode="&#xf004;" d="M240 880l720 720l720 -720l-120 -120l-120 120l-80 -560h-800l-80 560l-120 -120zM800 960q0 -60 50 -110t110 -50t110 50t50 110t-50 110t-110 50t-110 -50t-50 -110zM880 560q0 -30 25 -55t55 -25t55 25t25 55t-25 55t-55 25t-55 -25t-25 -55z" />
<glyph unicode="&#xf005;" d="M320 560v240h280l40 240h-240v240h280l40 240h240l-40 -240h240l40 240h240l-40 -240h200v-240h-240l-40 -240h200v-240h-240l-40 -240h-240l40 240h-240l-40 -240h-240l40 240h-240zM840 800h240l40 240h-240z" />
<glyph unicode="&#xf006;" d="M80 960l800 -480v320q23 0 63 -1.5t158 -14.5t229.5 -35.5t254.5 -72t255 -116.5q-49 98 -128.5 186t-167 151t-182.5 116t-180 86.5t-153.5 57t-108.5 33.5l-40 10v320z" />
<glyph unicode="&#xf007;" d="M320 1080v40h40l360 80l200 400q30 30 40 30t40 -30l200 -400l360 -80h40v-40l-320 -280l80 -400v-40h-40l-360 200l-360 -200h-40v40l80 400z" />
<glyph unicode="&#xf008;" d="M80 1040l360 400l360 -400h-240v-320h480l240 -240h-961l1 560h-240zM640 1440h960v-560h240l-360 -400l-360 400h240v320h-480z" />
<glyph unicode="&#xf009;" d="M240 1040q0 157 96 286t261 201.5t363 72.5t363 -72.5t261 -201.5t96 -286t-96 -286t-261 -201.5t-363 -72.5h-120l-440 -240l80 400q-123 92 -181.5 187t-58.5 213z" />
<glyph unicode="&#xf00a;" d="M160 1120q0 177 84.5 324t231.5 231.5t324 84.5t324 -84.5t231.5 -231.5t84.5 -324q0 -160 -80 -320l400 -400l-240 -240l-400 400q-160 -80 -320 -80q-177 0 -324 84.5t-231.5 231.5t-84.5 324zM400 1120q0 -180 110 -290t290 -110t290 110t110 290t-110 290t-290 110 t-290 -110t-110 -290z" />
<glyph unicode="&#xf00c;" d="M400 312v8v960q0 22 8 38.5t20 24t24 12t20 5.5h8h80v80q0 10 1 26t9.5 57.5t23.5 73t48 57.5t78 26h480q7 0 17.5 -1.5t38 -14.5t48.5 -35.5t38.5 -72t17.5 -116.5v-80h80q22 0 38.5 -8t24 -20t12 -24t5.5 -20v-8v-960q0 -22 -8 -38.5t-20 -24t-24 -12t-20 -5.5h-8h-960 q-22 0 -38.5 8t-24 20t-12 24t-5.5 20zM560 400h800v800h-800v-800zM720 480h160v640h-160v-640zM720 1360h480v80q0 22 -8 38.5t-20 24t-24 12t-20 5.5h-8h-320q-22 0 -38.5 -8t-24 -20t-12 -24t-5.5 -20v-8v-80zM1040 480h160v640h-160v-640z" />
<glyph unicode="&#xf00d;" d="M400 560l400 400l-400 400l160 160l400 -400l400 400l160 -160l-400 -400l400 -400l-160 -160l-400 400l-400 -400z" />
<glyph unicode="&#xf00e;" d="M480 320l1120 640l-1120 640v-1280z" />
<glyph unicode="&#xf00f;" d="M320 960l1120 640v-1280z" />
<glyph unicode="&#xf010;" d="M480 480l240 -240l720 720l-720 720l-240 -240l480 -480z" />
<glyph unicode="&#xf011;" d="M480 960l720 720l240 -240l-480 -480l480 -480l-240 -240z" />
<glyph unicode="&#xf012;" d="M240 960q0 197 96 362.5t261.5 261.5t362.5 96t362.5 -96t261.5 -261.5t96 -362.5t-96 -362.5t-261.5 -261.5t-362.5 -96t-362.5 96t-261.5 261.5t-96 362.5zM480 880h400v-400h160v400h400v160h-400v400h-160v-400h-400v-160z" />
<glyph unicode="&#xf013;" d="M400 312v8v720q0 22 8 38.5t20 24t24 12t20 5.5h8h80v240q0 10 1 26t9.5 57.5t23.5 73t48 57.5t78 26h480q7 0 17.5 -1.5t38 -14.5t48.5 -35.5t38.5 -72t17.5 -116.5v-240h80q22 0 38.5 -8t24 -20t12 -24t5.5 -20v-8v-720q0 -22 -8 -38.5t-20 -24t-24 -12t-20 -5.5h-8 h-960q-22 0 -38.5 8t-24 20t-12 24t-5.5 20zM720 1120h480v240q0 22 -8 38.5t-20 24t-24 12t-20 5.5h-8h-320q-22 0 -38.5 -8t-24 -20t-12 -24t-5.5 -20v-8v-240z" />
<glyph unicode="&#xf014;" d="M160 400v240h240v-240h-240zM160 800v240h240v-240h-240zM160 1200v240h240v-240h-240zM560 400v240h720v-240h-720zM560 800v240h1200v-240h-1200zM560 1200v240h1200v-240h-1200z" />
<glyph unicode="&#xf015;" d="M160 400v880q0 3 0.5 8.5t5 19.5t12 24.5t24 19t38.5 8.5h240v80q0 3 0.5 8.5t5 19.5t12 24.5t24 19t38.5 8.5h800q3 0 8.5 -0.5t19.5 -5t24.5 -12t19 -24t8.5 -38.5v-80h240q3 0 8.5 -0.5t19.5 -5t24.5 -12t19 -24t8.5 -38.5v-880q0 -3 -0.5 -8.5t-5 -19.5t-12 -24.5 t-24 -19t-38.5 -8.5h-1440q-3 0 -8.5 0.5t-19.5 5t-24.5 12t-19 24t-8.5 38.5zM560 880q0 -180 110 -290t290 -110t290 110t110 290t-110 290t-290 110t-290 -110t-110 -290zM720 880q0 -90 75 -165t165 -75t165 75t75 165t-75 165t-165 75t-165 -75t-75 -165z" />
<glyph unicode="&#xf016;" d="M320 960q0 -60 50 -110t110 -50t110 50t50 110t-50 110t-110 50t-110 -50t-50 -110zM800 960q0 -60 50 -110t110 -50t110 50t50 110t-50 110t-110 50t-110 -50t-50 -110zM1280 960q0 -60 50 -110t110 -50t110 50t50 110t-50 110t-110 50t-110 -50t-50 -110z" />
<glyph unicode="&#xf017;" d="M240 320v1280q0 30 25 55t55 25h1280q30 0 55 -25t25 -55v-1280q0 -30 -25 -55t-55 -25h-1280q-30 0 -55 25t-25 55zM920 880h160v-480h200v480h160v160h-160v160q0 20 1.5 30t8.5 24t24 20t46 6h80v160h-120q-72 0 -121.5 -20t-74 -56t-34.5 -75t-10 -89v-160h-160v-160 z" />
<glyph unicode="&#xf018;" d="M280 920l160 80q0 20 20 60t20 60l-160 120l120 120l160 -40q20 0 40 20t40 20l-40 200l160 80l120 -200h40h40l120 200l160 -80l-40 -200q20 0 40 -20t40 -20l160 40l120 -120l-160 -120q0 -20 20 -60t20 -60l160 -80l-40 -160h-160q-20 -20 -40 -60t-40 -60l80 -160 l-120 -120l-120 120q-20 0 -60 -20t-60 -20l-40 -200h-160l-40 200q-19 0 -41.5 13.5t-37 26.5t-41.5 40l-120 -120l-120 80l80 160q-20 20 -40 60t-40 60h-160zM720 960q0 -90 75 -165t165 -75t165 75t75 165t-75 165t-165 75t-165 -75t-75 -165z" />
<glyph unicode="&#xf019;" d="M80 1120q0 157 96 286t261 201.5t363 72.5t363 -72.5t261 -201.5t96 -286t-96 -286t-261 -201.5t-363 -72.5h-120l-440 -240l80 400q-123 92 -181.5 187t-58.5 213zM720 480q240 -80 400 -80h120l440 -240l-80 400q123 92 181.5 187.5t58.5 212.5q0 143 -52 260.5 t-162.5 199t-265.5 100.5q72 -29 121.5 -79.5t74 -117t34.5 -134t10 -149.5q0 -157 -96 -286t-261 -201.5t-363 -72.5h-160z" />
<glyph unicode="&#xf01a;" d="M79 400l1 160l80 80q57 0 112.5 24t87.5 56q37 0 69 13.5t48 26.5t43 40q4 0 11 1t18 11t11 28t-10 28t-20 11l-10 1q-14 0 -23 6t-12.5 20t-4 24t-0.5 30v16t-2.5 4t-6 0t-12 4t-19.5 16q-40 0 -40 120l40 40q0 20 -20 60t-20 60t20 60t20 60q44 66 72.5 96.5t68 47 t99.5 16.5t99.5 -16.5t68 -47t72.5 -96.5q0 -20 20 -60t20 -60t-20 -60t-20 -60l40 -40q0 -120 -40 -120q-11 -11 -19.5 -16t-12 -4t-6 0t-2.5 -4v-16q0 -20 -0.5 -30t-4 -24t-12.5 -20t-23 -6q-4 0 -11 -1t-18 -11t-11 -28t10 -28t20 -11l10 -1q27 -27 43 -40t48 -26.5 t69 -13.5h-40h40v-40v40q32 -32 87.5 -56t112.5 -24l80 -80l-1 -160h-1200zM1200 1040h640l-320 -320z" />
<glyph unicode="&#xf01c;" d="M160 640h600l200 560l320 -1040l160 480h320v240h-440l-40 -160l-320 1040l-320 -880h-480v-240z" />
<glyph unicode="&#xf01d;" d="M160 640l160 -160l400 400l320 -320l560 560l160 -160v480h-480l160 -160l-400 -400l-320 320z" />
<glyph unicode="&#xf01e;" d="M320 800h1280v320h-1280v-320z" />
<glyph unicode="&#xf01f;" d="M320 800v320h480v480h320v-480h480v-320h-480v-480h-320v480h-480z" />
<glyph unicode="&#xf020;" d="M560 1200q0 180 110 290t290 110t290 -110t110 -290q0 -67 -41 -182.5t-100 -232t-118 -223.5t-100 -174l-41 -68q-16 26 -43 70.5t-96 168t-122 230.5t-96 225.5t-43 185.5zM800 1200q0 -60 50 -110t110 -50t110 50t50 110t-50 110t-110 50t-110 -50t-50 -110z" />
<glyph unicode="&#xf021;" d="M160 880l560 -480l1040 960l-240 240l-800 -760l-320 280z" />
<glyph unicode="&#xf022;" d="M240 960q0 197 96 362.5t261.5 261.5t362.5 96t362.5 -96t261.5 -261.5t96 -362.5t-96 -362.5t-261.5 -261.5t-362.5 -96t-362.5 96t-261.5 261.5t-96 362.5zM400 960q0 -240 160 -400t400 -160t400 160t160 400t-160 400t-400 160t-400 -160t-160 -400zM880 880v480 l80 80l80 -80v-320h240l80 -80l-80 -80h-400z" />
<glyph unicode="&#xf023;" d="M240 960q0 197 96 362.5t261.5 261.5t362.5 96t362.5 -96t261.5 -261.5t96 -362.5t-96 -362.5t-261.5 -261.5t-362.5 -96t-362.5 96t-261.5 261.5t-96 362.5z" />
<glyph unicode="&#xf024;" d="M320 320v200l80 80q60 0 135 25t105 55q37 0 69 13.5t48 26.5t43 40q30 30 35 40t5 40l-40 40v40l-80 80q-40 0 -40 120q0 18 10 38t20 31l10 11v120q-14 14 -17 29t7.5 32t20 28t29.5 31q31 94 92 147t148 53q84 0 149 -50.5t131 -149.5q0 -20 20 -60t20 -60 q-19 -19 -28 -41.5t-10.5 -37t-1.5 -41.5q40 -40 40 -80q0 -120 -40 -120q-30 -30 -35 -40t-5 -40q-18 0 -28 -10t-11 -20l-1 -10l-40 -40q0 -30 5 -40t35 -40q27 -27 43 -40t48 -26.5t69 -13.5q30 -30 105 -55t135 -25l80 -80v-200h-1360z" />
<glyph unicode="&#xf025;" d="M240 880q0 -118 29.5 -213t90.5 -187q120 -120 240 -120q32 0 48.5 0.5t44 4.5t44 12t34 24t29.5 39q27 27 40 43t26.5 48t13.5 69q0 30 -25 80t-55 80q-32 32 -87.5 56t-112.5 24q-40 -40 -80 -40h-40q-24 0 -39 6t-23.5 14.5t-12.5 32.5t-4.5 43t-0.5 64q0 93 24.5 171 t75 143t137 108t203.5 58v120q-142 -28 -242.5 -85.5t-197.5 -154.5q-160 -240 -160 -440zM1040 880q0 -118 29.5 -213t90.5 -187q62 -62 127 -91t153 -29q22 0 37.5 1.5t41 8t46.5 24.5t35 46q27 27 40 43t26.5 48t13.5 69q0 30 -25 80t-55 80t-80 55t-80 25q-20 0 -60 -20 t-60 -20h-40q-34 0 -57 38.5t-23 121.5q0 185 117.5 318t322.5 162v120q-267 -67 -440 -240q-160 -240 -160 -440z" />
<glyph unicode="&#xf026;" d="M320 1520h1280l-640 -1120z" />
<glyph unicode="&#xf027;" d="M320 400l640 1120l640 -1120h-1280z" />
<glyph unicode="&#xf028;" d="M200 320v1040h520q-60 -30 -75 -40t-45 -40q0 -20 -20 -40t-20 -40h-200v-720h1040v160l160 120v-440h-1360zM560 720q0 56 13.5 110.5t26.5 85.5t40 84q20 20 40 60t40 60t60 40t60 40q33 32 88 56t112 24q28 28 59 34t101 6v280l600 -440l-600 -440v280h-80h-120 q-30 0 -45 -5t-75 -35q-27 0 -41.5 -1.5t-37 -10.5t-41.5 -28q-19 0 -41.5 -13.5t-37 -26.5t-41.5 -40q-20 -20 -40 -60t-40 -60z" />
<glyph unicode="&#xf029;" d="M240 960q0 197 96 362.5t261.5 261.5t362.5 96t362.5 -96t261.5 -261.5t96 -362.5t-96 -362.5t-261.5 -261.5t-362.5 -96t-362.5 96t-261.5 261.5t-96 362.5zM760 520h440v160h-120v480h-320v-160h120v-320h-120v-160zM840 1320q40 -40 40 -80h80h120v80v80 q-19 19 -41.5 28t-37 10.5t-41.5 1.5q-40 0 -80 -40t-40 -80z" />
</font>
</defs>
</svg>
